<?xml version="1.0" standalone="no"?>
<!DOCTYPE svg PUBLIC "-//W3C//DTD SVG 20010904//EN"
 "http://www.w3.org/TR/2001/REC-SVG-20010904/DTD/svg10.dtd">
<svg version="1.0" xmlns="http://www.w3.org/2000/svg"
 width="200.000000pt" height="200.000000pt" viewBox="0 0 200.000000 200.000000"
 preserveAspectRatio="xMidYMid meet">

<g transform="translate(0.000000,200.000000) scale(0.100000,-0.100000)"
fill="#000000" stroke="none">
<path d="M663 1440 c-97 -8 -107 -22 -113 -168 l-5 -117 -55 -3 c-30 -2 -60
-8 -67 -14 -9 -7 -13 -47 -13 -139 0 -74 -4 -130 -10 -134 -6 -4 -10 22 -10
69 0 83 -10 94 -48 54 -29 -32 -42 -71 -42 -129 0 -27 -4 -49 -10 -49 -5 0
-10 21 -10 46 l0 45 -31 -22 c-56 -40 -59 -59 -59 -384 l0 -295 165 0 165 0 0
71 c0 71 1 73 43 118 24 26 55 67 70 92 27 45 27 46 29 275 2 259 -1 274 -57
274 -18 0 -37 -6 -42 -12 -4 -7 -10 -76 -13 -153 -7 -187 -25 -178 -25 12 0
168 5 178 85 178 l50 0 0 141 0 140 398 1 397 0 3 -269 2 -268 -391 0 c-353 0
-391 -2 -385 -16 3 -9 6 -33 6 -55 l0 -39 398 0 c376 0 399 1 429 20 50 30 55
65 51 386 l-3 284 -33 32 -32 33 -388 0 c-213 0 -415 -2 -449 -5z m864 -366
c8 -21 -13 -42 -28 -27 -13 13 -5 43 11 43 6 0 13 -7 17 -16z"/>
<path d="M1170 480 l0 -70 -40 0 c-38 0 -40 2 -40 30 0 28 3 30 35 30 25 0 35
4 35 16 0 12 -9 14 -42 12 -36 -3 -44 -7 -52 -30 -6 -18 -6 -38 0 -55 8 -25
15 -28 57 -31 68 -4 77 6 77 94 0 59 -3 74 -15 74 -12 0 -15 -14 -15 -70z"/>
<path d="M740 521 c-5 -11 -10 -38 -10 -61 0 -70 11 -80 85 -80 51 0 65 3 65
15 0 12 -13 15 -55 15 l-55 0 0 50 0 50 55 0 c42 0 55 3 55 15 0 12 -14 15
-65 15 -53 0 -66 -3 -75 -19z"/>
<path d="M1382 463 l3 -78 72 -3 c64 -3 73 -1 83 18 8 15 8 26 -1 43 -7 12
-13 38 -13 57 l-1 35 -73 3 -73 3 3 -78z m118 33 c0 -16 -21 -26 -57 -26 -42
0 -20 -25 25 -28 29 -2 42 -8 42 -18 0 -10 -13 -14 -50 -14 l-50 0 0 50 0 50
45 0 c32 0 45 -4 45 -14z"/>
<path d="M1750 520 c0 -13 -7 -20 -20 -20 -11 0 -20 -7 -20 -15 0 -8 9 -15 20
-15 17 0 20 -7 20 -45 0 -33 4 -45 15 -45 11 0 15 12 15 45 0 41 2 45 25 45
16 0 25 6 25 15 0 9 -9 15 -25 15 -18 0 -25 5 -25 20 0 11 -7 20 -15 20 -8 0
-15 -9 -15 -20z"/>
<path d="M910 481 c-5 -11 -10 -29 -10 -41 0 -45 18 -60 68 -60 57 0 72 12 72
60 0 48 -15 60 -72 60 -37 0 -50 -4 -58 -19z m100 -41 c0 -28 -2 -30 -40 -30
-38 0 -40 2 -40 30 0 28 2 30 40 30 38 0 40 -2 40 -30z"/>
<path d="M1231 481 c-14 -25 -14 -57 -1 -82 14 -24 90 -28 90 -4 0 10 -11 15
-35 15 -32 0 -35 2 -35 30 0 28 2 30 40 30 22 0 40 -4 40 -10 0 -5 -16 -10
-35 -10 -25 0 -35 -4 -35 -16 0 -22 79 -15 94 9 19 30 -4 52 -62 55 -42 2 -53
0 -61 -17z"/>
<path d="M1571 481 c-14 -25 -14 -57 -1 -82 14 -24 90 -28 90 -4 0 10 -11 15
-35 15 -32 0 -35 2 -35 30 0 28 2 30 40 30 22 0 40 -4 40 -10 0 -5 -16 -10
-35 -10 -25 0 -35 -4 -35 -16 0 -22 79 -15 94 9 19 30 -4 52 -62 55 -42 2 -53
0 -61 -17z"/>
</g>
</svg>
